<svg width="60" height="61" viewBox="0 0 60 61" fill="none" xmlns="http://www.w3.org/2000/svg">
<rect y="0.23877" width="60" height="60" rx="14" fill="#5856D6"/>
<path d="M22.4941 45.7085H36.5059C38.3154 45.7085 39.4111 44.6792 39.4111 42.7866V42.4712C39.4111 38.3706 35.1279 34.0874 32.9531 31.9458C31.8242 30.8003 31.8906 29.5884 32.9531 28.5259C35.1279 26.3677 39.4111 22.1011 39.4111 17.9839V17.7183C39.4111 15.8257 38.3154 14.7798 36.5059 14.7798H22.4941C20.7012 14.7798 19.5889 15.8257 19.5889 17.7183V17.9839C19.5889 22.1011 23.8887 26.3677 26.0635 28.5259C27.126 29.5884 27.1924 30.8003 26.0635 31.9458C23.8887 34.0874 19.5889 38.3706 19.5889 42.4712V42.7866C19.5889 44.6792 20.7012 45.7085 22.4941 45.7085ZM23.8887 43.1187C23.1416 43.1187 22.9424 42.2388 23.4404 41.7573L28.5039 36.8765C28.7861 36.6274 28.8525 36.5444 28.8525 36.146V29.0903C28.8525 28.2769 28.6865 27.8286 28.0889 27.314C27.0264 26.3843 25.5322 25.0728 24.5527 24.0269C24.0879 23.5454 24.3203 22.9312 24.9346 22.9312H34.082C34.6963 22.9312 34.9121 23.5454 34.4473 24.0269C33.4844 25.0728 31.9736 26.3843 30.9111 27.314C30.3135 27.8286 30.1475 28.2769 30.1475 29.0903V36.146C30.1475 36.5444 30.2305 36.6274 30.4961 36.8765L35.5596 41.7573C36.0742 42.2388 35.875 43.1187 35.1113 43.1187H23.8887Z" fill="white"/>
</svg>
