<svg width="60" height="61" viewBox="0 0 60 61" fill="none" xmlns="http://www.w3.org/2000/svg">
<rect y="0.23877" width="60" height="60" rx="14" fill="#FF3B30"/>
<path d="M16.252 41.1099H42.7646C44.458 41.1099 45.5039 40.1802 45.5039 38.8022C45.5039 37.0591 43.8936 35.5483 42.3994 34.104C41.3369 33.0581 41.0215 30.8999 40.8721 29.0405C40.8223 27.9614 40.7393 26.9321 40.6064 25.936C39.7432 26.3013 38.7803 26.5171 37.7842 26.5171C33.3516 26.5171 29.7158 22.8813 29.7158 18.4487C29.7158 16.4067 30.4961 14.5474 31.7578 13.1362C31.0938 12.771 30.3301 12.5884 29.5 12.5884C27.043 12.5884 25.25 14.2651 24.5693 16.4565C20.2529 18.0171 18.4766 22.3169 18.2441 28.4263C18.0449 30.6011 17.7627 32.9751 16.6006 34.104C15.1064 35.5483 13.5127 37.0591 13.5127 38.8022C13.5127 40.1802 14.542 41.1099 16.252 41.1099ZM37.8008 24.1763C40.9219 24.1763 43.5283 21.5864 43.5283 18.4487C43.5283 15.2944 40.9219 12.7212 37.8008 12.7212C34.6465 12.7212 32.0732 15.2944 32.0732 18.4487C32.0732 21.5864 34.6465 24.1763 37.8008 24.1763ZM29.5166 47.9331C32.4385 47.9331 34.5801 45.8413 34.7959 43.4175H24.2207C24.4365 45.8413 26.5781 47.9331 29.5166 47.9331Z" fill="white"/>
</svg>
